<?xml version="1.0" encoding="UTF-8"?>
<svg width="140px" height="140px" viewBox="0 0 140 140" version="1.1" xmlns="http://www.w3.org/2000/svg" xmlns:xlink="http://www.w3.org/1999/xlink">
    <!-- Generator: Sketch 43.1 (39012) - http://www.bohemiancoding.com/sketch -->
    <title>rampen-logo</title>
    <desc>Created with Sketch.</desc>
    <defs></defs>
    <g id="Export" stroke="none" stroke-width="1" fill="none" fill-rule="evenodd">
        <g id="rampen-logo">
            <rect id="Rectangle-5" fill="#00B3B7" x="0" y="0" width="140" height="140"></rect>
            <path d="M23.0825405,96.6840223 C23.0825405,96.4370623 23.2827412,96.2368616 23.5297012,96.2368616 L117.433447,96.2368616 C117.680407,96.2368616 117.880608,96.4370623 117.880608,96.6840223 L117.880608,97.8839035 C117.880608,98.1308636 117.680407,98.3310642 117.433447,98.3310642 L23.5297012,98.3310642 C23.2827412,98.3310642 23.0825405,98.1308636 23.0825405,97.8839035 L23.0825405,96.6840223 L23.0825405,96.6840223 Z M23.2986682,77.9435176 L27.9998177,59.6531546 C28.015967,59.5580955 28.0731346,59.4749614 28.1561175,59.4258608 C28.2391004,59.3767602 28.3394876,59.3666698 28.4305825,59.398273 L33.866566,60.7934144 C35.3865453,61.1969288 36.2998675,62.7472518 35.9160525,64.2723246 L34.3584427,70.3343331 C34.0622969,71.4667421 33.1136154,72.3095571 31.9542087,72.4702707 L31.9959437,80.1793211 C31.9959437,80.4043919 31.9080021,80.5221443 31.7231757,80.4774282 L29.0089103,79.7798575 C28.8240839,79.7321604 28.7853299,79.5532961 28.7808583,79.3565454 L28.7450855,71.8442457 L28.2979248,71.7294744 L26.486924,78.7633122 C26.4728113,78.8540716 26.4206062,78.9344823 26.3434458,78.9843091 C26.2662854,79.0341359 26.171517,79.0486344 26.0829888,79.0241559 L23.5490782,78.3742824 C23.4550978,78.3565396 23.3734686,78.2988272 23.3254027,78.2161424 C23.2773368,78.1334575 23.2675802,78.0339645 23.2986682,77.9435176 L23.2986682,77.9435176 Z M42.6607263,81.4209373 L45.5374601,62.4717575 C45.5866478,62.1989895 45.720796,62.1140289 45.8832644,62.1110479 L48.1414259,62.0648413 C48.3053848,62.0648413 48.4395331,62.1408586 48.5021356,62.4106455 L52.1554384,81.2256771 C52.1867397,81.4432953 52.1554384,81.578934 51.9721026,81.5834056 L49.1698955,81.6415365 C48.9522773,81.6415365 48.8941464,81.4835398 48.8628452,81.2942417 L48.4604006,78.9347238 L46.2558983,78.9794399 L45.9577912,81.3538632 C45.9339426,81.5446517 45.8832644,81.7086106 45.6596841,81.7130822 L42.857477,81.7712131 C42.6994803,81.7741942 42.6160103,81.6668756 42.6607263,81.4209373 Z M63.340418,79.50858 L57.3708227,61.5908509 C57.3335901,61.5022675 57.336893,61.4018426 57.3798657,61.315897 C57.4228385,61.2299515 57.5011967,61.1670542 57.594403,61.1436902 L59.9703169,60.3522158 C60.1695664,60.3000367 60.3800245,60.3795564 60.4949854,60.550457 L65.597089,66.65271 L66.0204011,58.7096455 C66.0293443,58.477122 66.1157954,58.3057104 66.2961502,58.2445984 L68.6974031,57.4441807 C68.7841603,57.413365 68.8799595,57.4211658 68.9605883,57.4656113 C69.0412172,57.5100569 69.0989607,57.5868946 69.1192247,57.6767043 L75.08882,75.5944334 C75.126173,75.6783843 75.1258758,75.7742952 75.0880035,75.858013 C75.0501311,75.9417309 74.9782926,76.0052778 74.8905787,76.0326509 L72.3864789,76.8673508 C72.2997216,76.8981665 72.2039225,76.8903658 72.1232936,76.8459202 C72.0426648,76.8014747 71.9849213,76.724637 71.9646573,76.6348273 L68.6184047,66.5915981 L68.2472613,74.6032272 L63.1198187,68.4234664 L66.4660712,78.4666956 C66.5034242,78.5506465 66.5031271,78.6465574 66.4652547,78.7302752 C66.4273823,78.8139931 66.3555438,78.87754 66.26783,78.9049131 L63.7890692,79.7306698 C63.7005286,79.768465 63.5998851,79.7656361 63.5136073,79.7229271 C63.4273294,79.6802182 63.3640526,79.6019038 63.340418,79.50858 Z M87.5094536,68.6768574 L76.071083,53.6462959 C76.0068846,53.5744673 75.977347,53.4781351 75.9902482,53.3826661 C76.0031495,53.287197 76.0571964,53.2021601 76.1381571,53.1499475 L80.5993303,49.7545073 C81.8581144,48.8086241 83.6435489,49.0511561 84.6043996,50.2985528 L88.3948318,55.279923 C89.340715,56.5387071 89.098183,58.3241416 87.8507862,59.2849923 L85.7282635,60.9007329 L90.1298153,66.6840113 C90.192683,66.7514549 90.2236187,66.8426154 90.2147831,66.9343919 C90.2059475,67.0261683 90.1581885,67.1097527 90.0836087,67.1639637 L87.9968587,68.7469126 C87.9249781,68.8076315 87.8305626,68.8347129 87.7374261,68.8213263 C87.6442895,68.8079397 87.5613234,68.7553631 87.5094536,68.6768574 Z M103.577428,53.9175734 L88.3173239,42.7788005 C88.2352717,42.7283046 88.1794392,42.6444178 88.1645308,42.5492331 C88.1496223,42.4540484 88.1771325,42.3571079 88.2398161,42.2839426 L92.6190098,36.2815556 C92.672325,36.2030065 92.755825,36.1500823 92.8496156,36.1353922 C92.9434061,36.1207021 93.0390891,36.1455616 93.1138676,36.2040477 L95.1141665,37.6632821 C95.1927155,37.7165973 95.2456398,37.8000973 95.2603298,37.8938879 C95.2750199,37.9876784 95.2501605,38.0833614 95.1916743,38.1581399 L92.544483,41.7861037 L96.1948048,44.4496909 L98.2636683,41.6176732 C98.3131947,41.5417371 98.3912385,41.4889694 98.4801589,41.4712975 C98.5690794,41.4536257 98.6613694,41.4725415 98.7361681,41.5237694 L100.736467,42.9830038 C100.89129,43.1002048 100.925549,43.3189359 100.813975,43.4778617 L98.7451113,46.3098794 L103.252491,49.5980011 L105.995077,45.8373796 C106.047892,45.7619786 106.130458,45.712793 106.221911,45.7022517 C106.313364,45.6917104 106.404954,45.7208218 106.473539,45.7822298 L108.45297,47.2265589 C108.532454,47.2730604 108.588221,47.3513718 108.606172,47.4416929 C108.624122,47.532014 108.602537,47.6256983 108.546874,47.6990587 L104.075267,53.8341034 C104.02588,53.9180532 103.941874,53.9758434 103.845815,53.991949 C103.749757,54.0080546 103.651495,53.9808244 103.577428,53.9175734 L103.577428,53.9175734 Z M114.473244,35.7196236 L96.6360034,29.5130332 C96.5438844,29.4882849 96.4670158,29.4248212 96.4252754,29.3390533 C96.3835351,29.2532855 96.3810217,29.1536355 96.4183852,29.0658725 L97.0652777,27.1877975 C97.1278802,27.0074427 97.3171782,26.958255 97.5124383,26.9701793 L106.883436,27.0312913 L98.5125878,24.1172941 C98.4231346,24.0957568 98.3471703,24.0369763 98.3038718,23.9557916 C98.2605733,23.8746068 98.2540783,23.7787761 98.2860264,23.6924914 L99.1520276,21.1988253 C99.1803134,21.1097978 99.2458714,21.0374446 99.3316869,21.0005439 C99.4175025,20.9636432 99.5151142,20.9658335 99.5991883,21.0065462 L117.433447,27.2116461 C117.5229,27.2331834 117.598865,27.2919639 117.642163,27.3731486 C117.685462,27.4543334 117.691957,27.5501641 117.660009,27.6364488 L117.038455,29.4355253 C116.975853,29.6158801 116.811894,29.674011 116.57937,29.6784826 L107.463254,29.7917633 L115.54792,32.6103662 C115.637373,32.6319036 115.713337,32.6906841 115.756636,32.7718688 C115.799934,32.8530535 115.806429,32.9488843 115.774481,33.0351689 L114.915933,35.5020054 C114.89098,35.5929677 114.82823,35.6688693 114.743582,35.7104808 C114.658934,35.7520922 114.560509,35.7554209 114.473244,35.7196236 L114.473244,35.7196236 Z M36.8908628,115.990931 L36.8908628,109.967676 C36.8908628,109.643913 37.019477,109.333411 37.2484118,109.104476 C37.4773466,108.875542 37.7878488,108.746927 38.1116115,108.746927 L39.3815479,108.746927 C39.7059192,108.744929 40.017584,108.872901 40.2469534,109.102271 C40.4763229,109.33164 40.6042952,109.643305 40.6022966,109.967676 L40.6022966,110.735302 C40.6057059,110.774213 40.5923597,110.812732 40.5656068,110.841192 C40.538854,110.869653 40.5012338,110.885354 40.4621862,110.884356 L39.345775,110.884356 C39.3054854,110.887021 39.2660046,110.872175 39.2374533,110.843624 C39.2089019,110.815072 39.1940561,110.775592 39.1967215,110.735302 L39.1967215,110.398441 C39.1967215,110.233801 39.0632544,110.100334 38.8986143,110.100334 L38.6198842,110.100334 C38.5380207,110.095824 38.4579137,110.12523 38.3984095,110.181632 C38.3389052,110.238034 38.305257,110.316453 38.3053812,110.398441 L38.3053812,115.607863 C38.3118396,115.776163 38.4514798,115.908523 38.6198842,115.90597 L38.9343872,115.90597 C39.0990272,115.90597 39.2324943,115.772503 39.2324943,115.607863 L39.2324943,114.701617 C39.2324943,114.619297 39.2992279,114.552564 39.3815479,114.552564 L40.4979591,114.552564 C40.5382487,114.549898 40.5777295,114.564744 40.6062809,114.593296 C40.6348322,114.621847 40.649678,114.661328 40.6470127,114.701617 L40.6470127,115.992421 C40.6478559,116.668912 40.1027306,117.219362 39.426264,117.225094 L38.1011778,117.225094 C37.4282157,117.213689 36.8891365,116.663987 36.8908628,115.990931 L36.8908628,115.990931 Z M44.6118375,115.990931 L44.6118375,109.967676 C44.6118375,109.643913 44.7404517,109.333411 44.9693865,109.104476 C45.1983213,108.875542 45.5088235,108.746927 45.8325862,108.746927 L47.1740683,108.746927 C47.4996523,108.744547 47.8127618,108.872014 48.0441069,109.101121 C48.275452,109.330229 48.4059568,109.642084 48.4067413,109.967676 L48.4067413,115.990931 C48.4067413,116.671717 47.8548548,117.223604 47.1740683,117.223604 L45.8325862,117.223604 C45.1561196,117.217871 44.6109942,116.667421 44.6118375,115.990931 L44.6118375,115.990931 Z M52.6473152,117.007476 L52.6473152,108.945169 C52.6446498,108.904879 52.6594956,108.865398 52.688047,108.836847 C52.7165983,108.808295 52.7560791,108.79345 52.7963688,108.796115 L53.8665734,108.796115 C53.9539265,108.801462 54.0284988,108.86112 54.0528903,108.945169 L55.2974876,112.108085 L56.5420849,108.945169 C56.561398,108.862713 56.6320206,108.802352 56.7164775,108.796115 L57.7971159,108.796115 C57.8361635,108.795117 57.8737837,108.810818 57.9005365,108.839278 C57.9272893,108.867739 57.9406355,108.906257 57.9372262,108.945169 L57.9372262,117.007476 C57.9406355,117.046387 57.9272893,117.084906 57.9005365,117.113366 C57.8737837,117.141827 57.8361635,117.157528 57.7971159,117.15653 L56.6717615,117.15653 C56.6327139,117.157528 56.5950937,117.141827 56.5683409,117.113366 C56.541588,117.084906 56.5282418,117.046387 56.5316511,117.007476 L56.5316511,112.491153 L55.2989781,115.688352 L54.0543809,112.491153 L54.0543809,117.007476 C54.0577902,117.046387 54.0444439,117.084906 54.0176911,117.113366 C53.9909383,117.141827 53.9533181,117.157528 53.9142705,117.15653 L52.7963688,117.15653 C52.7560791,117.159195 52.7165983,117.144349 52.688047,117.115798 C52.6594956,117.087246 52.6446498,117.047766 52.6473152,117.007476 L52.6473152,117.007476 Z M62.2359311,117.007476 L62.2359311,108.945169 C62.2332657,108.904879 62.2481115,108.865398 62.2766628,108.836847 C62.3052142,108.808295 62.344695,108.79345 62.3849846,108.796115 L63.4551892,108.796115 C63.5425423,108.801462 63.6171146,108.86112 63.6415062,108.945169 L64.8861034,112.108085 L66.1307007,108.945169 C66.1500139,108.862713 66.2206364,108.802352 66.3050934,108.796115 L67.3857317,108.796115 C67.4247793,108.795117 67.4623995,108.810818 67.4891523,108.839278 C67.5159052,108.867739 67.5292514,108.906257 67.5258421,108.945169 L67.5258421,117.007476 C67.5292514,117.046387 67.5159052,117.084906 67.4891523,117.113366 C67.4623995,117.141827 67.4247793,117.157528 67.3857317,117.15653 L66.2573962,117.15653 C66.2183487,117.157528 66.1807285,117.141827 66.1539756,117.113366 C66.1272228,117.084906 66.1138766,117.046387 66.1172859,117.007476 L66.1172859,112.491153 L64.8846129,115.688352 L63.6400156,112.491153 L63.6400156,117.007476 C63.643425,117.046387 63.6300787,117.084906 63.6033259,117.113366 C63.5765731,117.141827 63.5389529,117.157528 63.4999053,117.15653 L62.3834941,117.15653 C62.3434552,117.158748 62.3043846,117.143705 62.2761722,117.115208 C62.2479599,117.08671 62.23331,117.047491 62.2359311,117.007476 Z M71.827528,115.990931 L71.827528,108.945169 C71.8248626,108.904879 71.8397084,108.865398 71.8682598,108.836847 C71.8968111,108.808295 71.9362919,108.79345 71.9765815,108.796115 L73.0929928,108.796115 C73.1320403,108.795117 73.1696605,108.810818 73.1964134,108.839278 C73.2231662,108.867739 73.2365124,108.906257 73.2331031,108.945169 L73.2331031,115.607863 C73.2395616,115.776163 73.3792017,115.908523 73.5476061,115.90597 L73.8725429,115.90597 C74.0371829,115.90597 74.17065,115.772503 74.17065,115.607863 L74.17065,108.945169 C74.17065,108.862849 74.2373836,108.796115 74.3197036,108.796115 L75.4361148,108.796115 C75.4764044,108.79345 75.5158852,108.808295 75.5444366,108.836847 C75.5729879,108.865398 75.5878337,108.904879 75.5851684,108.945169 L75.5851684,115.990931 C75.5860116,116.667421 75.0408863,117.217871 74.3644197,117.223604 L73.0393335,117.223604 C72.3663687,117.213011 71.8266298,116.663978 71.827528,115.990931 L71.827528,115.990931 Z M79.8957975,117.007476 L79.8957975,108.945169 C79.8931321,108.904879 79.9079779,108.865398 79.9365292,108.836847 C79.9650806,108.808295 80.0045614,108.79345 80.044851,108.796115 L80.8929658,108.796115 C80.970694,108.806267 81.0318674,108.86744 81.0420194,108.945169 L82.3328233,112.735601 L82.3328233,108.945169 C82.329414,108.906257 82.3427602,108.867739 82.369513,108.839278 C82.3962658,108.810818 82.433886,108.795117 82.4729336,108.796115 L83.6012691,108.796115 C83.6403167,108.795117 83.6779369,108.810818 83.7046897,108.839278 C83.7314425,108.867739 83.7447888,108.906257 83.7413795,108.945169 L83.7413795,117.007476 C83.7447888,117.046387 83.7314425,117.084906 83.7046897,117.113366 C83.6779369,117.141827 83.6403167,117.157528 83.6012691,117.15653 L82.7874366,117.15653 C82.7059006,117.149086 82.6393935,117.08807 82.6249682,117.007476 L81.2998821,113.34523 L81.2998821,117.007476 C81.3032914,117.046387 81.2899451,117.084906 81.2631923,117.113366 C81.2364395,117.141827 81.1988193,117.157528 81.1597717,117.15653 L80.0433605,117.15653 C80.0033216,117.158748 79.964251,117.143705 79.9360386,117.115208 C79.9078263,117.08671 79.8931764,117.047491 79.8957975,117.007476 Z M88.0460464,117.007476 L88.0460464,108.945169 C88.0433811,108.904879 88.0582269,108.865398 88.0867782,108.836847 C88.1153295,108.808295 88.1548104,108.79345 88.1951,108.796115 L89.3144923,108.796115 C89.3535398,108.795117 89.39116,108.810818 89.4179129,108.839278 C89.4446657,108.867739 89.4580119,108.906257 89.4546026,108.945169 L89.4546026,117.007476 C89.4580119,117.046387 89.4446657,117.084906 89.4179129,117.113366 C89.39116,117.141827 89.3535398,117.157528 89.3144923,117.15653 L88.1965905,117.15653 C88.1560518,117.159648 88.1161577,117.145003 88.0872652,117.116397 C88.0583726,117.08779 88.0433314,117.048044 88.0460464,117.007476 L88.0460464,117.007476 Z M94.5686304,117.007476 L94.5686304,110.136107 L93.4984258,110.136107 C93.4194756,110.136249 93.3541092,110.074804 93.3493723,109.995996 L93.3493723,108.937716 C93.3493723,108.855396 93.4161058,108.788662 93.4984258,108.788662 L97.0563344,108.788662 C97.1386545,108.788662 97.205388,108.855396 97.205388,108.937716 L97.205388,110.001958 C97.2006511,110.080767 97.1352847,110.142211 97.0563344,110.142069 L95.9756961,110.142069 L95.9756961,117.007476 C95.9791054,117.046387 95.9657592,117.084906 95.9390063,117.113366 C95.9122535,117.141827 95.8746333,117.157528 95.8355857,117.15653 L94.7072503,117.15653 C94.6684595,117.157099 94.6312429,117.14121 94.6048231,117.112802 C94.5784033,117.084393 94.5652528,117.046124 94.5686304,117.007476 Z M101.939329,117.007476 L101.939329,114.549583 L100.642563,108.945169 C100.618715,108.852755 100.654488,108.796115 100.734976,108.796115 L101.909519,108.796115 C101.983601,108.806586 102.038441,108.870354 102.037705,108.945169 L102.642862,112.212423 L103.239076,108.945169 C103.238934,108.866218 103.300378,108.800852 103.379187,108.796115 L104.541804,108.796115 C104.578735,108.794211 104.614044,108.811453 104.63525,108.841748 C104.656456,108.872043 104.660572,108.911121 104.646142,108.945169 L103.343414,114.549583 L103.343414,117.007476 C103.346079,117.047766 103.331233,117.087246 103.302682,117.115798 C103.274131,117.144349 103.23465,117.159195 103.19436,117.15653 L102.089873,117.15653 C102.050084,117.156927 102.011788,117.141399 101.983512,117.113403 C101.955236,117.085407 101.939327,117.047267 101.939329,117.007476 Z M46.680701,115.908951 C46.845341,115.908951 46.9788081,115.775484 46.9788081,115.610844 L46.9788081,110.398441 C46.9788081,110.233801 46.845341,110.100334 46.680701,110.100334 L46.3319156,110.100334 C46.2500522,110.095824 46.1699452,110.12523 46.1104409,110.181632 C46.0509367,110.238034 46.0172885,110.316453 46.0174126,110.398441 L46.0174126,115.607863 C46.0238711,115.776163 46.1635112,115.908523 46.3319156,115.90597 L46.6851726,115.90597 L46.680701,115.908951 Z M85.0739183,57.5664047 C85.2240005,57.4533644 85.3226304,57.2849873 85.3478295,57.0987946 C85.3730285,56.9126018 85.3227026,56.7240652 85.2080665,56.5751985 L82.571309,53.1097031 C82.4585165,52.9592785 82.2901,52.8603824 82.1037835,52.8351666 C81.9174669,52.8099508 81.7288217,52.8605228 81.5801028,52.9755549 L80.3876742,53.8818005 L83.8814898,58.4741409 L85.0739183,57.5664047 Z M30.5054081,69.1493572 C30.6873243,69.1976357 30.8810077,69.1708468 31.0429899,69.0750026 C31.2049721,68.9791585 31.321686,68.8222867 31.3669377,68.639594 L32.4505571,64.4213781 C32.4988356,64.2394619 32.4720466,64.0457785 32.3762025,63.8837963 C32.2803584,63.7218141 32.1234866,63.6051002 31.9407939,63.5598485 L30.4905027,63.1872146 L29.0551169,68.7737422 L30.5054081,69.1493572 Z M48.0266547,75.785222 L47.1323333,68.5650673 L46.6017026,75.8165232 L48.0266547,75.785222 Z" id="Combined-Shape" fill="#FFFFFF" fill-rule="nonzero"></path>
        </g>
    </g>
</svg>