<?xml version="1.0" encoding="UTF-8"?>
<svg width="237px" height="237px" viewBox="0 0 237 237" version="1.1" xmlns="http://www.w3.org/2000/svg" xmlns:xlink="http://www.w3.org/1999/xlink">
    <!-- Generator: Sketch 43.1 (39012) - http://www.bohemiancoding.com/sketch -->
    <title>Artboard Copy 3</title>
    <desc>Created with Sketch.</desc>
    <defs></defs>
    <g id="Export" stroke="none" stroke-width="1" fill="none" fill-rule="evenodd">
        <g id="Artboard-Copy-3" fill-rule="nonzero" fill="#FFFFFF">
            <g id="Group-2">
                <path d="M223.377686,77.9183871 C223.502893,77.7929147 223.628099,77.6674422 223.753306,77.5419698 C230.389256,70.7664579 234.896694,62.1088593 236.399174,52.3220087 L236.399174,52.1965363 C236.774793,50.0635048 236.9,47.8050008 236.9,45.5464968 C236.9,20.4520082 216.491322,0 191.45,0 C166.408678,0 146,20.4520082 146,45.5464968 C146,55.8352371 149.380579,65.2456704 155.140083,72.8994894 C155.265289,73.1504343 155.390496,73.2759067 155.515702,73.4013792 C163.779339,84.1920093 176.800826,91.0929936 191.45,91.0929936 C195.331405,91.0929936 199.21281,90.5911039 202.843802,89.7127968 L202.843802,89.7127968 C210.731818,87.5797652 217.743388,83.4391746 223.377686,77.9183871 Z M164.780992,75.5344107 C165.657438,75.2834658 166.408678,74.6561036 166.659091,73.6523241 L168.411983,67.0022846 L180.557025,66.7513397 C180.682231,66.8768121 180.807438,67.0022846 180.932645,67.127757 L192.827273,75.7853556 L191.950826,81.6825604 L180.306612,84.3174817 C174.547107,82.4353951 169.163223,79.4240564 164.780992,75.5344107 Z M165.407025,37.6417329 L178.052893,37.390788 L185.440083,49.6870874 L180.306612,63.2381113 L168.16157,63.4890562 L160.02314,50.3144496 L165.407025,37.6417329 Z M176.67562,16.9387798 L182.309917,21.8322051 L176.926033,32.1209454 L167.159917,32.2464179 L166.909504,23.0869295 L176.67562,16.9387798 Z M187.693802,22.9614571 L202.342975,22.9614571 L210.230992,36.1360636 L203.344628,47.8050008 L188.319835,47.6795283 L181.057851,35.3832289 L187.693802,22.9614571 Z M210.857025,17.9425594 L220.748347,24.9690162 L221.624793,32.7483076 L214.36281,32.8737801 L207.72686,21.8322051 L210.857025,17.9425594 Z M230.013636,56.7135442 C228.76157,60.8541349 227.008678,64.7437806 224.504545,68.257009 L224.504545,66.3749224 L230.013636,56.7135442 Z M227.008678,50.9418119 L219.871901,63.8654735 L210.356198,63.8654735 L206.6,50.0635048 L206.6,49.9380323 L213.486364,38.1436227 L223.628099,38.0181502 L227.008678,50.9418119 L227.008678,50.9418119 Z M194.955785,70.7664579 L185.690496,63.9909459 L189.697107,53.2003158 L201.842149,53.3257883 L204.847107,64.3673633 L194.955785,70.7664579 Z M156.141736,54.0786229 L163.278512,65.6220877 L162.27686,69.7626783 L159.021488,69.0098437 C155.891322,64.6183082 153.512397,59.5994104 152.385537,54.2040954 L156.141736,54.0786229 Z M195.581818,81.9335053 L196.333058,76.1617729 L209.479752,67.8805917 C209.730165,67.7551192 209.855372,67.6296468 209.980579,67.3787019 L219.245868,67.3787019 L219.120661,74.6561036 C214.36281,79.1731115 208.603306,82.4353951 202.217769,84.3174817 L195.581818,81.9335053 Z M231.390909,49.4361425 L230.389256,49.561615 L226.758264,36.6379534 C227.133884,36.1360636 227.259091,35.5087014 227.133884,34.8813392 L226.132231,25.3454335 C229.51281,31.2426383 231.516116,38.1436227 231.516116,45.4210244 C231.516116,46.8012212 231.516116,48.1814181 231.390909,49.4361425 Z M221.37438,18.8208665 L211.983884,12.170827 C211.483058,11.7944096 210.731818,11.6689372 210.105785,11.6689372 L205.973967,8.1557088 C211.983884,10.4142128 217.242562,14.1783861 221.37438,18.8208665 Z M198.211157,5.89720482 L207.35124,13.9274412 L202.468182,19.5737011 L187.693802,19.4482287 C187.568595,19.3227562 187.568595,19.3227562 187.443388,19.1972838 L180.056198,12.6727167 L185.565289,5.64625994 C187.568595,5.39531505 189.571901,5.14437016 191.575207,5.14437016 C193.703719,5.26984261 195.957438,5.52078749 198.211157,5.89720482 Z M179.930992,7.02645681 L176.800826,11.041575 C176.425207,11.041575 175.92438,11.1670474 175.54876,11.4179923 L163.153306,19.0718113 L161.776033,18.4444491 C166.659091,13.1746065 172.919421,9.15948834 179.930992,7.02645681 Z M159.522314,21.2048429 L161.650826,22.2086224 L161.90124,35.0068116 C161.90124,35.3832289 162.026446,35.7596463 162.151653,36.0105911 L156.767769,48.6833079 L151.509091,48.8087803 C151.383884,47.6795283 151.383884,46.5502764 151.383884,45.4210244 C151.258678,36.3870085 154.388843,27.9803548 159.522314,21.2048429 Z" id="Shape"></path>
                <path d="M45,7.51592357 C65.6775,7.51592357 82.5,24.3741401 82.5,45.0955414 C82.5,65.8169427 65.6775,82.6751592 45,82.6751592 C24.3225,82.6751592 7.5,65.8169427 7.5,45.0955414 C7.5,24.3741401 24.3225,7.51592357 45,7.51592357 Z M45,0 C20.14875,0 0,20.1915287 0,45.0955414 C0,69.9995541 20.14875,90.1910828 45,90.1910828 C69.85125,90.1910828 90,69.9995541 90,45.0955414 C90,20.1915287 69.85125,0 45,0 Z M65.655,52.3897452 C59.98125,56.8805096 53.7525,59.6463694 45.00375,59.6463694 C36.2475,59.6463694 30.01875,56.8805096 24.345,52.3897452 L22.5,54.2424204 C26.72625,60.7061146 34.5,67.6433121 45.00375,67.6433121 C55.50375,67.6433121 63.27375,60.7061146 67.5,54.2424204 L65.655,52.3897452 Z M67.5,37.5871338 L64.66875,39.4886624 C64.66875,39.4886624 62.7825,35.9261146 58.12125,35.9261146 C53.595,35.9261146 51.5775,39.4886624 51.5775,39.4886624 L48.75,37.5871338 C49.80375,34.7761783 53.26875,30.0636943 58.12125,30.0636943 C62.9775,30.0636943 66.43875,34.7761783 67.5,37.5871338 L67.5,37.5871338 Z M41.25,37.5871338 L38.41875,39.4886624 C38.41875,39.4886624 36.5325,35.9261146 31.87125,35.9261146 C27.345,35.9261146 25.3275,39.4886624 25.3275,39.4886624 L22.5,37.5871338 C23.55375,34.7761783 27.01875,30.0636943 31.87125,30.0636943 C36.7275,30.0636943 40.18875,34.7761783 41.25,37.5871338 L41.25,37.5871338 Z" id="Shape"></path>
                <path d="M50.1115,174.218077 C49.9780625,173.965918 51.415375,173.828377 51.6708125,173.828377 C51.9529375,173.862762 50.9235625,175.555286 50.1115,174.218077 Z M41.907,162.481211 L42.31875,162.362773 C42.56275,162.572906 42.04425,162.725729 42.1243125,162.882374 C42.4521875,163.474566 42.204375,163.829881 42.1548125,164.150811 C42.1014375,164.475562 41.7583125,164.3342 41.58675,164.506126 C41.3846875,164.758286 42.570375,164.792671 42.585625,164.830877 C42.6275625,164.956956 41.1559375,165.17091 41.426625,165.484199 C41.792625,166.003799 44.568125,164.739183 44.125875,164.811774 C44.9836875,164.380047 44.2364375,164.3342 43.7560625,164.085861 C43.592125,163.264433 43.454875,161.995996 42.944,161.487857 L43.2795,161.098156 C42.494125,159.955798 41.907,162.481211 41.907,162.481211 L41.907,162.481211 Z M91.5,188.847134 C91.5,214.166213 71.0154375,234.694268 45.75,234.694268 C20.48075,234.694268 0,214.166213 0,188.847134 C0,163.528054 20.48075,143 45.75,143 C71.0154375,143 91.5,163.528054 91.5,188.847134 Z M59.818125,168.326721 C59.79525,167.768914 59.09375,167.241672 58.36175,168.208282 C57.8470625,168.873066 57.9385625,169.885523 57.66025,170.336354 C57.26375,171.004958 59.8219375,171.631535 59.8219375,171.001137 C59.91725,169.942832 62.6126875,170.760439 63.1388125,170.905622 C64.0843125,171.169243 65.59025,170.042168 63.94325,169.449976 C62.5898125,168.953298 61.876875,168.422236 61.754875,167.451805 C61.754875,167.451805 62.471625,166.77938 62.159,166.817586 C61.327875,166.920742 59.818125,169.820573 59.818125,168.326721 L59.818125,168.326721 Z M83.821625,188.847134 C83.821625,184.892818 83.1468125,180.900297 82.4605625,178.791329 C82.2394375,178.126546 81.74,177.599304 81.091875,177.347144 C80.115875,176.965085 75.9945625,179.628039 75.373125,178.317575 C74.9651875,177.442659 74.137875,178.875382 73.192375,178.34814 C72.734875,178.095981 71.4615,176.380534 70.8858125,176.590667 C69.70775,177.014753 72.6929375,180.27372 73.5088125,180.701626 C74.275125,180.120896 76.7570625,178.92505 77.2908125,180.556444 C78.3125625,183.628202 74.481,186.994145 72.521375,188.766901 C69.593375,191.418394 70.142375,187.051454 68.1484375,185.511755 C67.1,184.705609 67.1114375,182.990162 66.0515625,182.39797 C65.5788125,182.130529 63.4095,179.628039 63.4285625,179.291827 L63.36375,179.926046 C63.005375,180.197308 62.242875,178.902126 62.1628125,178.699635 C62.1628125,179.82671 63.9928125,181.62239 64.599,182.52405 C65.6321875,184.071391 66.185,186.325541 67.45075,187.590158 C68.129375,188.270224 70.721875,191.082182 71.3966875,191.021052 C72.1325,190.956102 74.458125,189.27122 74.869875,189.366735 C77.325125,189.947465 69.090125,201.61174 68.3085625,203.055925 C67.66425,204.267053 68.8346875,207.262399 68.739375,208.695122 C68.6288125,210.349439 67.32875,210.884323 66.0973125,211.785983 C64.7781875,212.752593 65.087,214.632326 63.9775625,215.320033 C62.0065,216.534982 60.58825,220.489297 57.789875,220.470194 C56.966375,220.466374 53.443625,221.845608 52.9823125,220.496938 C52.6239375,219.518866 52.1435625,218.777671 51.6365,217.811061 C51.140875,216.863553 51.5793125,215.88166 50.9769375,215.04495 C50.561375,214.46422 49.166,213.146115 49.0401875,212.458408 C49.0325625,211.866215 49.48625,210.066715 50.1076875,209.753427 C50.98075,209.306417 50.2754375,208.003594 50.1686875,207.247117 C49.9856875,205.894626 49.15075,204.779013 48.1480625,203.995791 C46.665,202.853433 47.4313125,201.944132 47.77825,200.312738 C47.77825,199.533337 47.3055,198.509417 46.260875,198.815065 C44.110625,199.441642 44.7625625,197.134003 43.195625,197.237159 C42.067125,197.317392 41.1445,198.035663 40.0960625,198.352773 C38.7769375,198.750115 37.4273125,198.039484 36.1234375,197.875199 C30.75925,197.195133 29.0093125,191.051617 30.4085,186.619727 C30.5495625,185.893814 29.973875,184.548965 30.2255,183.987338 C30.827875,182.642488 32.0555,181.133354 33.130625,180.113255 C33.733,179.540166 34.5069375,179.685348 35.2160625,179.238339 C36.31025,178.546811 36.3255,177.12555 37.3968125,176.254454 C38.9218125,175.012761 41.0034375,175.039505 42.9935625,174.772064 C44.0534375,174.630702 48.0870625,173.755786 48.72375,174.542828 C48.72375,174.688011 49.4519375,176.850467 48.6513125,176.728208 C50.302125,176.816082 52.6544375,179.589833 54.221375,178.940332 C55.0258125,178.60412 54.73225,176.128375 56.3830625,177.324221 C57.3819375,178.042493 61.8578125,178.363423 62.7880625,177.587842 C63.3599375,177.114088 63.6801875,174.034689 62.9863125,173.687015 C63.4285625,174.126383 60.656875,174.160769 60.397625,174.061433 C59.940125,173.893327 59.513125,174.496981 58.7773125,174.156948 C59.2195625,174.367081 56.3144375,172.804458 57.9461875,171.608611 C57.26375,172.109109 56.6270625,171.467249 55.89125,172.017415 C55.3841875,172.430039 56.127625,172.705122 55.40325,173.064258 C54.251875,173.648809 53.382625,171.058446 52.948,170.76426 C52.50575,170.473895 49.082125,168.06692 50.012375,169.637185 L53.0204375,172.636351 C52.87175,172.731866 52.23125,171.543661 52.23125,172.410936 C52.4333125,171.895156 52.3075,174.623061 51.83475,173.736683 C51.6250625,173.39665 52.177875,173.20562 51.857625,172.712763 C51.857625,172.388013 50.988375,172.070903 50.820625,171.849309 C50.3440625,171.257117 49.0783125,169.950473 48.3920625,169.637185 C48.2014375,169.549311 45.4793125,169.969576 45.2505625,170.05745 C44.9836875,170.431868 44.7549375,170.82539 44.568125,171.245655 C44.003875,171.455788 43.4739375,171.72705 42.9706875,172.063262 L42.372125,173.411932 C42.112875,173.644988 39.4555625,174.523725 39.4403125,174.55811 C39.550875,174.271566 37.583625,173.904789 37.71325,173.3317 C37.858125,172.701301 38.5253125,170.733695 38.35375,170.015424 C38.17075,169.262766 42.448375,171.100472 42.722875,169.117584 C42.8334375,168.25795 42.89825,167.256954 41.5295625,167.111772 C41.7888125,167.142337 44.17925,166.171906 44.57575,165.736358 C45.132375,165.094498 46.4095625,164.047655 47.336,164.047655 C48.41875,164.047655 48.1861875,162.469749 48.685625,161.697989 C49.1850625,161.900481 48.41875,163.134533 49.0173125,163.635031 C48.9791875,163.24151 50.713875,163.852805 50.881625,163.76111 C51.278125,163.554798 53.489375,163.677057 53.14625,162.637856 C52.765,161.579551 53.3406875,161.89284 53.8363125,161.671245 C53.7524375,161.705631 55.1325625,159.306297 55.3689375,160.09334 C55.205,159.283374 53.763875,160.376064 53.260625,160.334037 C52.0978125,160.242343 52.589625,158.347328 53.0280625,157.793342 C53.367375,157.353973 52.101625,156.81527 52.086375,157.6558 C52.0635,158.912776 50.896875,160.051313 51.1675625,161.720913 C51.5793125,164.238685 48.365375,161.113438 48.08325,161.285365 C47.01575,161.934866 46.1426875,160.467758 46.6955,159.589021 C47.25975,158.691182 48.6208125,158.733208 49.18125,157.770418 C49.57775,157.090352 50.0390625,156.299489 50.6490625,155.783709 C52.68875,154.068262 53.253,155.439856 55.2850625,155.627065 C57.271375,155.810453 55.9560625,156.100818 55.6815625,156.864937 C55.4185,157.59085 56.7719375,157.850651 57.240875,157.243176 C57.50775,156.891682 58.1139375,156.009124 58.377,155.355803 C58.7163125,154.507631 61.8120625,154.603145 59.650375,153.307964 C58.2245,152.455971 52.010125,150.740524 47.846875,150.740524 C46.947125,150.740524 46.3180625,151.745341 45.6318125,152.314609 C44.2745625,153.441685 40.7975625,155.653809 38.864625,154.981384 C36.8859375,154.297498 32.65025,157.502977 31.971625,157.5259 C31.7238125,157.541183 31.986875,155.103643 33.3365,154.924075 C32.7531875,155.011949 38.0906875,152.222915 37.9458125,151.642185 C37.7704375,150.954478 27.274625,154.782713 27.7435625,155.550653 C27.9685,155.902148 28.8835,155.902148 27.6825625,156.673908 C26.9963125,157.090352 26.2643125,159.734204 25.62,159.734204 C23.6946875,160.578555 23.5726875,158.072245 21.4300625,161.296827 L18.0216875,162.672241 C12.9586875,168.0631 9.455,174.890502 8.1854375,182.474382 C8.135875,182.776209 9.4588125,183.337837 9.630375,183.544149 C10.057375,184.056108 10.057375,186.264412 10.2670625,186.986504 C10.7931875,188.812748 12.09325,189.829027 13.0883125,191.490985 C13.6754375,192.480519 14.6514375,194.983008 14.342625,196.02221 C14.754375,195.342144 18.422,199.135995 19.093,199.926858 C20.671375,201.787487 21.8875625,204.041638 19.3255625,205.883165 C18.49825,206.479177 20.5836875,210.196616 19.5085625,211.109738 L18.13225,211.465053 C16.775,212.301763 17.3888125,214.353423 18.2123125,215.216877 C25.1434375,222.479827 34.9110625,227.011052 45.7385625,227.011052 C66.772125,227.011052 83.821625,209.925354 83.821625,188.847134 L83.821625,188.847134 Z M39.9511875,164.559615 C40.42775,164.349482 41.06825,164.357123 41.136875,163.719084 C41.1940625,163.153636 41.304625,163.543337 41.441875,163.337024 C41.5753125,163.134533 41.1864375,162.809782 41.0225,162.779218 C40.7785,162.725729 40.61075,163.042839 40.4544375,163.176559 L40.1799375,163.249151 L39.9206875,163.581542 L39.9511875,163.764931 L39.6195,164.169914 C39.2954375,164.490844 39.627125,164.700977 39.9511875,164.559615 L39.9511875,164.559615 Z" id="Shape"></path>
                <path d="M216.48328,182.986653 L216.48328,152.155595 C216.48328,147.107828 212.384155,143 207.347083,143 C202.310011,143 198.213589,147.107828 198.213589,152.155595 L198.213589,175.521322 L184.562002,152.78538 C182.919919,150.048183 179.920922,148.351147 176.73001,148.351147 C175.077115,148.351147 173.448548,148.804864 172.028112,149.662185 C169.937329,150.921756 168.458778,152.922173 167.870872,155.296397 C167.281615,157.669267 167.651928,160.128817 168.908831,162.225394 L176.948955,175.61342 C175.473107,175.698746 174.035102,176.121312 172.759278,176.889244 C170.665792,178.15017 169.189945,180.150586 168.602038,182.52481 C168.308761,183.704473 168.256052,184.908515 168.427694,186.077344 C168.330385,186.071926 168.231725,186.055674 168.131713,186.055674 C166.478819,186.055674 164.852954,186.510744 163.429816,187.366711 C161.339032,188.628992 159.863185,190.628053 159.275279,193.000923 C158.683318,195.376502 159.053631,197.836053 160.313237,199.931275 L163.758232,205.66842 C163.750123,205.751037 163.733905,205.829591 163.733905,205.914917 C163.733905,222.614396 177.288183,236.197452 193.952283,236.197452 C210.613679,236.197452 224.167957,222.614396 224.167957,205.914917 L224.167957,194.666808 C224.169309,189.436201 221.000021,184.936957 216.48328,182.986653 Z M207.347083,147.898785 C209.690599,147.898785 211.597577,149.807103 211.597577,152.155595 L211.597577,181.960035 C211.558383,181.960035 211.520541,181.954617 211.481347,181.954617 L203.100643,181.954617 L203.100643,152.155595 C203.100643,149.807103 205.00627,147.898785 207.347083,147.898785 Z M172.614667,156.477415 C172.889023,155.374951 173.572886,154.444493 174.547324,153.858048 C175.209563,153.458506 175.965056,153.247223 176.73001,153.247223 C178.236942,153.247223 179.599263,154.017864 180.375029,155.309941 L196.374186,181.953263 L196.307962,181.953263 C193.602242,181.953263 191.646609,181.953263 190.015338,182.905391 C189.16524,183.402447 188.586794,184.066092 188.178638,184.812355 L173.097156,159.700834 C172.511952,158.725682 172.340311,157.581232 172.614667,156.477415 Z M173.345833,183.705828 C173.620189,182.60201 174.306756,181.671552 175.27849,181.085107 C175.940729,180.685565 176.696223,180.474282 177.461176,180.474282 C178.968108,180.474282 180.330429,181.244923 181.106195,182.537 L188.008348,194.026187 C189.215245,196.036084 188.56517,198.65816 186.556828,199.867619 C185.897292,200.267161 185.141799,200.478444 184.376845,200.478444 C182.86721,200.478444 181.50489,199.706448 180.729124,198.415726 L173.829673,186.929247 C173.243118,185.954095 173.071477,184.809646 173.345833,183.705828 Z M164.017722,194.18465 C164.292078,193.082186 164.978644,192.150374 165.953082,191.562574 C166.611266,191.165741 167.36676,190.954458 168.131713,190.954458 C169.638645,190.954458 171.003669,191.723745 171.779435,193.017176 L178.678885,204.505009 C179.262737,205.478807 179.434379,206.621902 179.161374,207.724366 C178.887018,208.829538 178.200451,209.758641 177.226014,210.346441 C176.566478,210.748691 175.810984,210.957266 175.046031,210.957266 C175.046031,210.957266 175.046031,210.957266 175.043328,210.957266 C173.539099,210.957266 172.174075,210.187979 171.398309,208.894548 L164.498859,197.406715 C163.913656,196.432917 163.742014,195.289822 164.017722,194.18465 Z M219.283606,205.916271 C219.283606,219.915121 207.920122,231.30273 193.953634,231.30273 C182.944246,231.30273 173.578293,224.216625 170.094104,214.36488 C171.553733,215.308882 173.267446,215.857405 175.046031,215.857405 L175.048734,215.857405 C176.701629,215.857405 178.330196,215.402334 179.751983,214.542304 C181.842767,213.282732 183.318614,211.280962 183.903817,208.908092 C184.197094,207.728429 184.252506,206.524387 184.080865,205.358267 C184.178173,205.360976 184.276833,205.377229 184.374142,205.377229 L184.376845,205.377229 C186.02974,205.377229 187.655605,204.924866 189.078743,204.064836 C190.79651,203.030092 192.042601,201.509125 192.768361,199.787711 C193.507636,200.303729 194.286105,200.766926 195.128095,201.115001 C192.8927,203.426924 191.511458,206.569081 191.511458,210.034934 C191.511458,211.386603 192.604829,212.485004 193.953634,212.485004 C195.302439,212.485004 196.398513,211.386603 196.398513,210.034934 C196.398513,205.64675 199.962441,202.075255 204.341328,202.075255 C205.690133,202.075255 206.783504,200.979564 206.783504,199.627894 C206.783504,198.276225 205.690133,197.177825 204.341328,197.177825 L199.954332,197.177825 C195.653832,197.177825 192.154776,193.669986 192.154776,189.359001 C192.154776,187.518402 192.464272,187.147302 192.464272,187.144593 C192.833234,186.849339 194.842927,186.849339 196.316071,186.849339 L211.48405,186.849339 C215.787253,186.849339 219.286309,190.355823 219.286309,194.666808 L219.286309,205.916271 L219.283606,205.916271 Z" id="Shape"></path>
            </g>
        </g>
    </g>
</svg>