<svg xmlns="http://www.w3.org/2000/svg" width="24" height="24" viewBox="0 0 24 24">
  <path d="M13.4355611,3.63186196 C12.6427226,2.17832474 11.3548279,2.18281555 10.5644389,3.63186196 L1.43556107,20.368138 C0.642722583,21.8216753 1.34177063,23 2.99109042,23 L21.0089096,23 C22.6608432,23 23.3548279,21.8171844 22.5644389,20.368138 L13.4355611,3.63186196 Z M11,9 L13,9 L13,16 L11,16 L11,9 Z M12,20.25 C11.31,20.25 10.75,19.69 10.75,19 C10.75,18.31 11.31,17.75 12,17.75 C12.69,17.75 13.25,18.31 13.25,19 C13.25,19.69 12.69,20.25 12,20.25 Z"/>
</svg>
