<svg xmlns="http://www.w3.org/2000/svg"><symbol viewBox="0 0 24 24" id="icon-calendar"><path d="M20,20 L16,20 L16,16 L20,16 L20,20 Z M14,10 L10,10 L10,14 L14,14 L14,10 Z M20,10 L16,10 L16,14 L20,14 L20,10 Z M8,16 L4,16 L4,20 L8,20 L8,16 Z M14,16 L10,16 L10,20 L14,20 L14,16 Z M8,10 L4,10 L4,14 L8,14 L8,10 Z M24,2 L24,24 L0,24 L0,2 L3,2 L3,3 C3,4.103 3.897,5 5,5 C6.103,5 7,4.103 7,3 L7,2 L17,2 L17,3 C17,4.103 17.897,5 19,5 C20.103,5 21,4.103 21,3 L21,2 L24,2 Z M22,8 L2,8 L2,22 L22,22 L22,8 Z M20,1 C20,0.448 19.553,0 19,0 C18.447,0 18,0.448 18,1 L18,3 C18,3.552 18.447,4 19,4 C19.553,4 20,3.552 20,3 L20,1 Z M6,3 C6,3.552 5.553,4 5,4 C4.447,4 4,3.552 4,3 L4,1 C4,0.448 4.447,0 5,0 C5.553,0 6,0.448 6,1 L6,3 Z"/></symbol>
<symbol viewBox="0 0 24 24" id="icon-checkmark"><polygon points="20.285 3 9 14.567 3.714 9.556 0 13.272 9 22 24 6.715"/></symbol>
<symbol viewBox="0 0 24 24" id="icon-location"><path d="M12,0 C7.802,0 4,3.403 4,7.602 C4,11.8 7.469,16.812 12,24 C16.531,16.812 20,11.8 20,7.602 C20,3.403 16.199,0 12,0 Z M12,11 C10.343,11 9,9.657 9,8 C9,6.343 10.343,5 12,5 C13.657,5 15,6.343 15,8 C15,9.657 13.657,11 12,11 Z"/></symbol>
<symbol viewBox="0 0 24 24" id="icon-warning"><path d="M13.4355611,3.63186196 C12.6427226,2.17832474 11.3548279,2.18281555 10.5644389,3.63186196 L1.43556107,20.368138 C0.642722583,21.8216753 1.34177063,23 2.99109042,23 L21.0089096,23 C22.6608432,23 23.3548279,21.8171844 22.5644389,20.368138 L13.4355611,3.63186196 Z M11,9 L13,9 L13,16 L11,16 L11,9 Z M12,20.25 C11.31,20.25 10.75,19.69 10.75,19 C10.75,18.31 11.31,17.75 12,17.75 C12.69,17.75 13.25,18.31 13.25,19 C13.25,19.69 12.69,20.25 12,20.25 Z"/></symbol></svg>