<?xml version="1.0" encoding="UTF-8"?>
<svg width="370px" height="155px" viewBox="0 0 370 155" version="1.1" xmlns="http://www.w3.org/2000/svg" xmlns:xlink="http://www.w3.org/1999/xlink">
    <!-- Generator: Sketch 43.1 (39012) - http://www.bohemiancoding.com/sketch -->
    <title>vad-gor-rampen.svg</title>
    <desc>Created with Sketch.</desc>
    <defs></defs>
    <g id="Export" stroke="none" stroke-width="1" fill="none" fill-rule="evenodd">
        <g id="vad-gor-rampen.svg" fill="#FFFFFF">
            <g id="Group-7">
                <path d="M194.030497,141.123042 L202.045184,109.940983 C202.072716,109.778922 202.170177,109.637193 202.311649,109.553484 C202.453122,109.469776 202.624265,109.452573 202.779567,109.506451 L212.047024,111.884938 C214.638339,112.572864 216.195403,115.215909 215.541062,117.815907 L212.885593,128.150635 C212.380713,130.081206 210.763367,131.518067 208.78677,131.792057 L208.857921,144.934719 C208.857921,145.318428 208.707995,145.519176 208.392897,145.442943 L203.765521,144.2537 C203.450422,144.172384 203.384353,143.86745 203.37673,143.532022 L203.315743,130.724787 L202.553407,130.529121 L199.465949,142.520657 C199.441889,142.675387 199.352888,142.812474 199.221342,142.89742 C199.089796,142.982367 198.928232,143.007084 198.777306,142.965353 L194.457405,141.857425 C194.297184,141.827177 194.15802,141.728787 194.076075,141.587823 C193.994131,141.446858 193.977497,141.277239 194.030497,141.123042 L194.030497,141.123042 Z M227.039621,147.051471 L231.943979,114.746237 C232.027836,114.281212 232.256536,114.136368 232.533518,114.131286 L236.383312,114.052512 C236.662835,114.052512 236.891536,114.182109 236.998262,114.642051 L243.226543,146.718584 C243.279906,147.089587 243.226543,147.320829 242.913985,147.328452 L238.136683,147.427556 C237.76568,147.427556 237.666577,147.158197 237.613213,146.835475 L236.927111,142.812886 L233.168798,142.889119 L232.660574,146.93712 C232.619916,147.262383 232.533518,147.541906 232.15235,147.54953 L227.375048,147.648633 C227.10569,147.653716 226.963387,147.470755 227.039621,147.051471 Z M262.295093,143.791216 L252.117915,113.244436 C252.054439,113.093416 252.06007,112.922208 252.133332,112.775685 C252.206593,112.629162 252.340181,112.521932 252.499083,112.482101 L256.549625,111.132767 C256.889312,111.04381 257.248109,111.179378 257.444098,111.470736 L266.142345,121.874073 L266.864023,108.332455 C266.87927,107.93604 267.026654,107.643812 267.33413,107.539626 L271.427871,106.175046 C271.575778,106.12251 271.739099,106.135809 271.876558,106.211581 C272.014017,106.287354 272.11246,106.418349 272.147007,106.57146 L282.324185,137.11824 C282.387866,137.261363 282.387359,137.424875 282.322793,137.5676 C282.258227,137.710325 282.135754,137.818662 281.986216,137.865329 L277.717138,139.288355 C277.569231,139.340891 277.405909,139.327592 277.268451,139.251819 C277.130992,139.176047 277.032548,139.045051 276.998002,138.89194 L271.293192,121.769887 L270.660453,135.428397 L261.919007,124.892921 L267.623817,142.014975 C267.687498,142.158097 267.686991,142.321609 267.622425,142.464334 C267.557859,142.60706 267.435386,142.715397 267.285848,142.762063 L263.059969,144.169843 C262.909022,144.234277 262.737441,144.229454 262.590352,144.156643 C262.443262,144.083831 262.335386,143.950318 262.295093,143.791216 Z M303.499322,125.324911 L283.998782,99.7002769 C283.889334,99.5778209 283.838977,99.4135904 283.860972,99.2508314 C283.882966,99.0880723 283.975107,98.9430983 284.113132,98.8540846 L291.718698,93.0654176 C293.864718,91.4528423 296.90859,91.8663195 298.546683,93.9929257 L305.008746,102.485342 C306.621321,104.631362 306.207844,107.675234 304.081238,109.313326 L300.462686,112.067898 L307.966607,121.927436 C308.073786,122.042417 308.126527,122.19783 308.111463,122.354294 C308.0964,122.510758 308.014979,122.653255 307.887833,122.745676 L304.330267,125.444344 C304.207723,125.547859 304.04676,125.594029 303.887977,125.571207 C303.729195,125.548385 303.587751,125.45875 303.499322,125.324911 Z M330.892574,100.16276 L304.876608,81.1729852 C304.736722,81.086898 304.641537,80.9438849 304.616121,80.7816106 C304.590704,80.6193363 304.637604,80.4540688 304.74447,80.329334 L312.210274,70.0962516 C312.301168,69.9623385 312.443522,69.8721113 312.603419,69.8470671 C312.763317,69.822023 312.92644,69.8644043 313.053926,69.9641135 L316.464106,72.4518681 C316.598019,72.5427618 316.688246,72.6851155 316.71329,72.8450129 C316.738335,73.0049104 316.695953,73.1680341 316.596244,73.2955193 L312.083218,79.4806006 L318.306417,84.0215785 L321.833488,79.1934542 C321.917923,79.0639957 322.050975,78.9740355 322.202569,78.9439079 C322.354164,78.9137802 322.511503,78.9460286 322.639023,79.0333638 L326.049203,81.5211184 C326.313151,81.7209268 326.371557,82.0938273 326.181341,82.3647696 L322.65427,87.1928938 L330.338611,92.7986003 L335.014268,86.3873594 C335.104309,86.258813 335.24507,86.1749596 335.400982,86.1569885 C335.556894,86.1390173 335.713042,86.1886476 335.829967,86.2933381 L339.204571,88.7556814 C339.340079,88.8349589 339.435153,88.968467 339.465755,89.1224496 C339.496357,89.2764321 339.459558,89.4361484 339.364662,89.5612159 L331.741308,100.020458 C331.657111,100.163578 331.513894,100.262101 331.35013,100.289559 C331.186366,100.317016 331.018847,100.270593 330.892574,100.16276 Z M349.468147,69.1382501 L319.058588,58.5570346 C318.90154,58.5148429 318.770491,58.4066477 318.699331,58.2604276 C318.628171,58.1142075 318.623886,57.9443207 318.687584,57.7946992 L319.79043,54.5928904 C319.897156,54.2854151 320.219878,54.2015583 320.552765,54.2218872 L336.528774,54.326073 L322.257855,49.3581873 C322.105352,49.3214697 321.975846,49.2212586 321.902029,49.082852 C321.828212,48.9444454 321.817139,48.7810697 321.871605,48.6339686 L323.347995,44.3826781 C323.396217,44.230901 323.507983,44.1075507 323.654284,44.0446411 C323.800586,43.9817314 323.966998,43.9854654 324.11033,44.0548739 L354.514808,54.6335483 C354.66731,54.6702659 354.796817,54.770477 354.870634,54.9088836 C354.944451,55.0472902 354.955524,55.2106659 354.901058,55.357767 L353.841411,58.4248964 C353.734684,58.7323717 353.455161,58.8314753 353.058747,58.8390987 L337.517269,59.0322237 L351.300293,63.8374779 C351.452796,63.8741955 351.582303,63.9744066 351.65612,64.1128131 C351.729936,64.2512197 351.741009,64.4145954 351.686543,64.5616965 L350.222859,68.7672469 C350.180318,68.9223226 350.073341,69.0517224 349.92903,69.1226631 C349.784719,69.1936038 349.616921,69.1992787 349.468147,69.1382501 L349.468147,69.1382501 Z M299.347135,106.383417 C299.603,106.190702 299.771148,105.903647 299.814108,105.586219 C299.857068,105.268791 299.771271,104.947367 299.575835,104.693574 L295.080598,98.7854744 C294.888305,98.5290252 294.601183,98.3604236 294.283544,98.3174348 C293.965905,98.2744461 293.644295,98.360663 293.390754,98.5567737 L291.35786,100.101774 L297.31424,107.930958 L299.347135,106.383417 Z M206.316803,126.130446 C206.62694,126.212753 206.957139,126.167082 207.233292,126.003683 C207.509445,125.840285 207.708423,125.572844 207.785569,125.261383 L209.632962,118.070019 C209.715269,117.759882 209.669598,117.429684 209.5062,117.153531 C209.342801,116.877378 209.075361,116.6784 208.7639,116.601253 L206.291392,115.965973 L203.844295,125.490084 L206.316803,126.130446 Z M236.187646,137.443503 L234.662975,125.134327 L233.758337,137.496867 L236.187646,137.443503 Z" id="Combined-Shape" fill-rule="nonzero"></path>
                <path d="M7.13,148 L10.902,148 C11.178,148 11.5,147.77 11.546,147.402 L17.066,115.478 C17.158,115.064 16.928,114.88 16.698,114.88 L11.96,114.88 C11.684,114.88 11.5,115.11 11.454,115.478 L9.016,135.396 L6.578,115.478 C6.532,115.11 6.348,114.88 6.072,114.88 L1.334,114.88 C1.104,114.88 0.874,115.064 0.966,115.478 L6.486,147.402 C6.532,147.77 6.854,148 7.13,148 Z M24.664,148 C24.388,148 24.25,147.816 24.342,147.402 L29.862,115.478 C29.954,115.018 30.184,114.88 30.46,114.88 L34.278,114.88 C34.554,114.88 34.784,115.018 34.876,115.478 L40.396,147.402 C40.442,147.77 40.396,148 40.074,148 L35.336,148 C34.968,148 34.876,147.724 34.83,147.402 L34.232,143.4 L30.506,143.4 L29.908,147.402 C29.862,147.724 29.77,148 29.402,148 L24.664,148 Z M31.196,138.064 L33.588,138.064 L32.346,125.828 L31.196,138.064 Z M51.444,148 C51.076,148 50.846,147.77 50.846,147.402 L50.846,115.478 C50.846,115.11 51.076,114.88 51.444,114.88 L60.92,114.88 C63.542,114.88 65.75,117.042 65.75,119.71 L65.75,143.17 C65.75,145.838 63.542,148 60.92,148 L51.444,148 Z M56.412,142.664 L58.942,142.664 C59.632,142.664 60.138,142.112 60.138,141.468 L60.138,121.412 C60.138,120.768 59.632,120.216 58.942,120.216 L56.412,120.216 L56.412,142.664 Z M101.6,148.23 L106.844,148.23 C109.466,148.23 111.674,146.068 111.674,143.354 L111.674,132.498 C111.674,132.13 111.444,131.9 111.076,131.9 L104.728,131.9 C104.406,131.9 104.13,132.13 104.13,132.498 L104.13,136.638 C104.13,137.006 104.406,137.236 104.728,137.236 L106.062,137.236 L106.062,141.836 C106.062,142.48 105.556,143.032 104.866,143.032 L103.578,143.032 C102.888,143.032 102.336,142.48 102.336,141.836 L102.336,121.228 C102.336,120.538 102.888,120.032 103.578,120.032 L104.636,120.032 C105.28,120.032 105.832,120.538 105.832,121.228 L105.832,122.562 C105.832,122.93 106.062,123.16 106.43,123.16 L110.846,123.16 C111.168,123.16 111.444,122.93 111.444,122.562 L111.444,119.526 C111.444,116.812 109.236,114.696 106.568,114.696 L101.6,114.696 C98.978,114.696 96.77,116.812 96.77,119.526 L96.77,143.354 C96.77,146.068 98.978,148.23 101.6,148.23 Z M126.816,112.856 C128.518,112.856 129.898,111.43 129.898,109.682 C129.898,107.98 128.518,106.646 126.816,106.646 C125.114,106.646 123.688,107.98 123.688,109.682 C123.688,111.43 125.114,112.856 126.816,112.856 Z M133.808,112.856 C135.51,112.856 136.89,111.43 136.89,109.682 C136.89,107.98 135.51,106.646 133.808,106.646 C132.106,106.646 130.68,107.98 130.68,109.682 C130.68,111.43 132.106,112.856 133.808,112.856 Z M127.644,148.23 C125.022,148.23 122.814,146.068 122.814,143.354 L122.814,119.526 C122.814,116.812 125.022,114.696 127.644,114.696 L132.934,114.696 C135.602,114.696 137.81,116.812 137.81,119.526 L137.81,143.354 C137.81,146.068 135.602,148.23 132.934,148.23 L127.644,148.23 Z M129.622,143.032 L131.002,143.032 C131.692,143.032 132.198,142.48 132.198,141.836 L132.198,121.228 C132.198,120.538 131.692,120.032 131.002,120.032 L129.622,120.032 C128.932,120.032 128.38,120.538 128.38,121.228 L128.38,141.836 C128.38,142.48 128.932,143.032 129.622,143.032 Z M150.238,148 C149.87,148 149.64,147.77 149.64,147.402 L149.64,115.478 C149.64,115.11 149.87,114.88 150.238,114.88 L159.714,114.88 C162.336,114.88 164.544,117.042 164.544,119.71 L164.544,130.29 C164.544,132.36 163.256,134.062 161.508,134.798 L164.82,147.402 C164.912,147.77 164.82,148 164.498,148 L159.76,148 C159.438,148 159.3,147.724 159.208,147.402 L155.988,135.12 L155.206,135.12 L155.206,147.402 C155.206,147.77 154.976,148 154.654,148 L150.238,148 Z M155.206,129.968 L157.736,129.968 C158.426,129.968 158.932,129.416 158.932,128.772 L158.932,121.412 C158.932,120.768 158.426,120.216 157.736,120.216 L155.206,120.216 L155.206,129.968 Z" id="VAD-GÖR"></path>
                <g id="Group-8" transform="translate(340.576483, 17.272309) rotate(-78.000000) translate(-340.576483, -17.272309) translate(329.576483, -10.227691)" font-size="46" font-family="Clarke-Black, Clarke" letter-spacing="8.47368431" font-weight="700">
                    <text id="?">
                        <tspan x="5.68434189e-14" y="48">?</tspan>
                    </text>
                </g>
            </g>
        </g>
    </g>
</svg>